# xmcd CD database file
#
# Track frame offsets:
#	150
#	17318
#	35473
#	55670
#	71010
#	87969
#	106150
#	122399
#	139395
#	157686
#
# Disc length: 2343 seconds
#
# Revision: 2
# Processed by: cddbd v1.5.1PL2 Copyright (c) Steve Scherf et al.
# Submitted via: CDex 1.51
#
DISCID=7009250a
DTITLE=Various Artist - Destination St Germain CD2
DYEAR=2006
DGENRE=New Age
TTITLE0=Stone - Hero's
TTITLE1=Urban Buddha - Urban Buddha
TTITLE2=The Project - Journey Into Dust (sweet chili mix)
TTITLE3=Down Beat 3 - About Midnight (smokin' mix)
TTITLE4=Stephane Noir - Street Life
TTITLE5=LBD - Beauty (buddha revival mix)
TTITLE6=Urban Knights - Urban Knights (dub mix)
TTITLE7=Soul Storm - Red Earth (bombay dust mix)
TTITLE8=Loop Star - Rouge Noir (beat drop mix)
TTITLE9=Theory Corp - Before My Eyes (rising mix)
EXTD=YEAR: 2006
EXTT0=
EXTT1=
EXTT2=
EXTT3=
EXTT4=
EXTT5=
EXTT6=
EXTT7=
EXTT8=
EXTT9=
PLAYORDER=
